<svg width="100" xmlns="http://www.w3.org/2000/svg" height="100" id="screenshot-4f6133f1-d7bc-80f7-8006-d84b94df9694" viewBox="0 0 100 100" xmlns:xlink="http://www.w3.org/1999/xlink" fill="none" version="1.1"><g id="shape-4f6133f1-d7bc-80f7-8006-d84b94df9694" rx="0" ry="0"><g id="shape-4f6133f1-d7bc-80f7-8006-d84b38045260"><g class="fills" id="fills-4f6133f1-d7bc-80f7-8006-d84b38045260"><ellipse cx="50" cy="50" rx="50" ry="50" transform="matrix(1.000000, 0.000000, 0.000000, 1.000000, 0.000000, 0.000000)" style="fill: rgb(255, 255, 255); fill-opacity: 1;"/></g></g><g id="shape-4f6133f1-d7bc-80f7-8006-d84b3e871ce0" width="87.09" height="87.09" rx="0" ry="0" style="fill: rgb(0, 0, 0);"><g id="shape-4f6133f1-d7bc-80f7-8006-d84b3e8b608e" style="display: none;"><g class="fills" id="fills-4f6133f1-d7bc-80f7-8006-d84b3e8b608e"><rect width="98.98863375455923" height="99.98312440018094" x="1.0113662454407688" transform="matrix(1.000000, 0.000000, 0.000000, 1.000000, 0.000000, 0.000000)" style="fill: none;" ry="0" fill="none" rx="0" y="0"/></g></g><g id="shape-4f6133f1-d7bc-80f7-8006-d84b3e8b608f"><g class="fills" id="fills-4f6133f1-d7bc-80f7-8006-d84b3e8b608f"><path d="M76.19890594482422,51.0858154296875C76.82418060302734,51.82293701171875,77.35832977294922,52.6280517578125,77.76777648925781,53.501220703125L80.26815032958984,58.5927734375L82.17757415771484,59.29583740234375C80.41606903076172,57.095947265625,79.46111297607422,53.97747802734375,79.46111297607422,49.97454833984375C79.46111297607422,49.248779296875,79.49544525146484,48.54571533203125,79.56359100341797,47.8653564453125C78.8247299194336,49.2828369140625,77.64257049560547,50.40545654296875,76.19890594482422,51.09716796875Z"/></g></g><g id="shape-4f6133f1-d7bc-80f7-8006-d84b3e8b6090"><g class="fills" id="fills-4f6133f1-d7bc-80f7-8006-d84b3e8b6090"><path d="M18.03809356689453,37.78424072265625L17.85633659362793,44.4747314453125L14.389402389526367,44.4747314453125L13.45741081237793,41.27691650390625C12.093501091003418,40.86865234375,10.672792434692383,40.6759033203125,9.240484237670898,40.687255859375C5.250996112823486,40.687255859375,3.011894702911377,43.59027099609375,3.011894702911377,49.7930908203125C3.011894702911377,55.9959716796875,5.364837169647217,58.411376953125,9.354323387145996,58.411376953125C10.740952491760254,58.365966796875,12.127580642700195,58.13922119140625,13.45741081237793,57.7423095703125L13.45741081237793,53.0589599609375L10.649831771850586,52.20849609375L10.649831771850586,49.1580810546875L21.40230369567871,48.97662353515625L21.40230369567871,52.20849609375L18.867605209350586,53.0589599609375L18.867605209350586,59.49993896484375L21.59566307067871,58.411376953125L21.59566307067871,40.93670654296875L18.79944610595703,39.825439453125L18.79944610595703,36.66162109375L27.380977630615234,36.48016357421875L30.92742919921875,36.48016357421875C36.63322448730469,36.48016357421875,39.99767303466797,39.451171875,39.99767303466797,44.281982421875C39.99767303466797,44.735595703125,39.974952697753906,45.18914794921875,39.92927551269531,45.64276123046875C42.111576080322266,39.99554443359375,46.72633743286133,36.026611328125,53.06877136230469,36.026611328125C55.28514862060547,35.94720458984375,57.47880935668945,36.582275390625,59.3089599609375,37.8409423828125L59.3089599609375,36.66162109375L67.89049530029297,36.48016357421875L70.73190307617188,36.48016357421875C76.80145263671875,36.48016357421875,80.38198852539062,38.97491455078125,80.43855285644531,43.9417724609375C82.21166229248047,38.89556884765625,86.39473724365234,36.026611328125,92.06645965576172,36.026611328125C94.18035125732422,36.06060791015625,96.28337860107422,36.36676025390625,98.31800842285156,36.95648193359375C91.07742309570312,10.30792236328125,63.571319580078125,-5.4544677734375,36.860660552978516,1.74627685546875C18.9814453125,6.56573486328125,5.22827672958374,20.83123779296875,1.0911109447479248,38.8388671875C3.40973162651062,36.93377685546875,6.342026233673096,35.92449951171875,9.342965126037598,36.026611328125C12.320698738098145,36.09466552734375,15.264595985412598,36.68426513671875,18.03809356689453,37.77288818359375Z"/></g></g><g id="shape-4f6133f1-d7bc-80f7-8006-d84b3e8b6091"><g class="fills" id="fills-4f6133f1-d7bc-80f7-8006-d84b3e8b6091"><path d="M96.13545989990234,41.27691650390625C94.77156066894531,40.86865234375,93.3508529663086,40.6759033203125,91.91854095458984,40.687255859375C87.92904663085938,40.687255859375,85.68994140625,43.59027099609375,85.68994140625,49.7930908203125C85.68994140625,55.9959716796875,88.04289245605469,58.411376953125,92.0323715209961,58.411376953125C93.41899871826172,58.365966796875,94.80563354492188,58.13922119140625,96.13545989990234,57.7423095703125L96.13545989990234,53.0589599609375L93.33924865722656,52.20849609375L93.33924865722656,49.1580810546875L99.99999237060547,49.044677734375C99.96591186523438,47.50250244140625,99.87503051757812,45.98291015625,99.70464324951172,44.4747314453125L97.07881927490234,44.4747314453125L96.14682006835938,41.27691650390625Z"/></g></g><g id="shape-4f6133f1-d7bc-80f7-8006-d84b3e8b6092"><g class="fills" id="fills-4f6133f1-d7bc-80f7-8006-d84b3e8b6092"><path d="M67.86776733398438,40.93670654296875L67.86776733398438,48.47772216796875L69.99303436279297,48.47772216796875C72.93693542480469,48.47772216796875,74.65324401855469,47.06024169921875,74.65324401855469,44.5767822265625C74.75547790527344,42.66033935546875,73.2666015625,41.02740478515625,71.3455810546875,40.9254150390625C71.1978988647461,40.9254150390625,71.06134033203125,40.9254150390625,70.91366577148438,40.9254150390625L67.85640716552734,40.9254150390625Z"/></g></g><g id="shape-4f6133f1-d7bc-80f7-8006-d84b3e8b6093"><g class="fills" id="fills-4f6133f1-d7bc-80f7-8006-d84b3e8b6093"><path d="M27.358257293701172,40.93670654296875L27.358257293701172,49.22607421875L29.33608055114746,49.22607421875C32.43901824951172,49.22607421875,34.18939971923828,47.774658203125,34.18939971923828,45.0303955078125C34.18939971923828,42.61505126953125,32.88228988647461,40.93670654296875,30.347593307495117,40.93670654296875L27.358257293701172,40.93670654296875Z"/></g></g><g id="shape-4f6133f1-d7bc-80f7-8006-d84b3e8b6094"><g class="fills" id="fills-4f6133f1-d7bc-80f7-8006-d84b3e8b6094"><path d="M82.80284881591797,59.9989013671875L82.80284881591797,62.6865234375L75.90354919433594,62.6865234375L72.76628875732422,55.81451416015625C71.49349975585938,52.99090576171875,71.163818359375,52.40130615234375,69.18599700927734,52.40130615234375L67.87913513183594,52.40130615234375L67.87913513183594,58.4227294921875L70.56127166748047,59.53399658203125L70.56127166748047,62.69781494140625L59.28623962402344,62.69781494140625L59.28623962402344,59.53399658203125L62.082218170166016,58.4227294921875L62.082218170166016,51.18792724609375C60.308868408203125,58.12786865234375,55.0920295715332,63.17413330078125,47.89712905883789,63.17413330078125C41.92981719970703,63.17413330078125,38.49720764160156,59.74945068359375,38.49720764160156,53.54656982421875C38.49720764160156,52.0723876953125,38.63376235961914,50.5982666015625,38.906646728515625,49.1580810546875C37.326416015625,52.12908935546875,34.04172134399414,53.58062744140625,29.33608055114746,53.58062744140625L27.358257293701172,53.58062744140625L27.358257293701172,58.411376953125L30.154233932495117,59.52264404296875L30.154233932495117,62.6865234375L18.765607833862305,62.6865234375L18.765607833862305,60.690673828125C15.673791885375977,62.36895751953125,12.207342147827148,63.2081298828125,8.694969177246094,63.12872314453125C5.944431304931641,63.25347900390625,3.2277321815490723,62.43701171875,0.9999903440475464,60.8267822265625C6.990022659301758,87.78155517578125,33.746124267578125,104.7799072265625,60.76374816894531,98.80377197265625C79.34752655029297,94.68743896484375,93.98723602294922,80.43328857421875,98.55657196044922,61.9947509765625C96.24929809570312,62.76580810546875,93.82796478271484,63.15142822265625,91.39574432373047,63.14007568359375C88.22465515136719,63.321533203125,85.110107421875,62.18756103515625,82.79149627685547,60.01025390625Z"/></g></g><g id="shape-4f6133f1-d7bc-80f7-8006-d84b3e8b6095"><g class="fills" id="fills-4f6133f1-d7bc-80f7-8006-d84b3e8b6095"><path d="M62.082218170166016,40.94805908203125L61.71846008300781,40.80059814453125C61.85501480102539,41.0841064453125,61.979736328125,41.36761474609375,62.082218170166016,41.6624755859375L62.082218170166016,40.94805908203125Z"/></g></g><g id="shape-4f6133f1-d7bc-80f7-8006-d84b3e8b6096"><g class="fills" id="fills-4f6133f1-d7bc-80f7-8006-d84b3e8b6096"><path d="M44.464515686035156,53.093017578125C44.464515686035156,56.5516357421875,45.91930389404297,58.5247802734375,48.82912063598633,58.5247802734375C54.057559967041016,58.5247802734375,56.774261474609375,51.3466796875,56.774261474609375,45.9942626953125C56.774261474609375,42.46759033203125,55.239707946777344,40.6759033203125,52.29605484008789,40.6759033203125C46.95353698730469,40.6759033203125,44.45315933227539,48.00146484375,44.45315933227539,53.093017578125Z"/></g></g></g></g></svg>